#!OML:ASF H:\Terrain\Patient Classification 1\Walking\liu\liu.ASF
:FULLY-SPECIFIED
:DEGREES
114
root 14.042610 24.295048 -32.161499 6.271725 5.370255 7.082715
lowerback -12.167069 -4.781865 -8.587215
upperback -1.501395 -5.741220 3.463890
thorax 6.061440 -3.018180 7.771065
lowerneck -29.164049 -7.709715 -19.983299
upperneck 32.205299 -8.794455 16.210049
head 16.306049 -3.777510 7.909785
rclavicle 0.000000 -0.000000
rhumerus -69.628799 14.235300 -126.691055
rradius 53.344200
rwrist -29.078102
rhand -44.253151 -35.907600
rfingers 10.687531
rthumb -4.254870 -80.848953
lclavicle 0.000000 -0.000000
lhumerus -37.380600 -39.978001 138.931503
lradius 63.700802
lwrist 19.560150
lhand -19.622101 -38.284203
lfingers 10.687531
lthumb 19.522200 6.076845
rfemur -60.467850 17.454750 10.933860
rtibia 43.082699
rfoot -33.769501 -12.833731
rtoes -27.956549
lfemur 20.326649 0.842343 -43.479000
ltibia 0.000000
lfoot -21.048901 4.063920
ltoes -5.069670
115
root 14.031031 24.262350 -31.953602 6.347535 6.047071 6.949635
lowerback -12.220695 -4.960500 -8.445300
upperback -1.486200 -5.989005 3.472290
thorax 6.131805 -3.141180 7.663440
lowerneck -28.993349 -7.768530 -19.897501
upperneck 31.965748 -8.926380 16.271099
head 16.203451 -3.826020 7.889595
rclavicle 0.000000 0.000000
rhumerus -69.588600 13.707075 -126.381454
rradius 52.922550
rwrist -28.767452
rhand -43.999649 -34.957649
rfingers 10.687531
rthumb -4.010145 -79.902153
lclavicle 0.000000 0.000000
lhumerus -38.043747 -40.100250 139.368454
lradius 63.920551
lwrist 19.525801
lhand -19.136850 -37.943851
lfingers 10.687531
lthumb 19.989901 6.386955
rfemur -60.894600 18.357450 10.150695
rtibia 42.355198
rfoot -35.176498 -14.166540
rtoes -28.513201
lfemur 21.055201 0.708549 -43.087952
ltibia 0.000000
lfoot -21.571051 3.638385
ltoes -4.277055
116
root 14.014335 24.223349 -31.743900 6.577935 6.243031 7.091700
lowerback -12.515491 -5.053365 -8.581050
upperback -1.443819 -6.078420 3.346890
thorax 6.353250 -3.193320 7.580055
lowerneck -29.157749 -7.685550 -19.699949
upperneck 32.004002 -8.906790 16.480350
head 16.245899 -3.772260 7.939650
rclavicle 0.000000 -0.000000
rhumerus -69.518547 13.282740 -126.265945
rradius 52.621048
rwrist -28.503750
rhand -44.259750 -34.739552
rfingers 10.687531
rthumb -4.261320 -79.680748
lclavicle 0.000000 -0.000000
lhumerus -38.564701 -40.169701 139.667999
lradius 63.861000
lwrist 19.432051
lhand -19.276501 -38.095650
lfingers 10.687531
lthumb 19.855200 6.243855
rfemur -61.562401 18.549900 9.613680
rtibia 41.706150
rfoot -35.531101 -14.980230
rtoes -29.359501
lfemur 21.640800 1.006020 -43.005150
ltibia 0.000000
lfoot -22.215000 3.116370
ltoes -3.950265
117
root 13.992916 24.187801 -31.543652 6.814875 6.563445 7.431660
lowerback -12.511185 -5.013030 -8.889481
upperback -1.562640 -5.989755 3.163215
thorax 6.221955 -3.145590 7.576470
lowerneck -28.884899 -7.627830 -19.820551
upperneck 31.849800 -8.927355 16.924351
head 16.159349 -3.747120 8.121720
rclavicle -0.000000 0.000000
rhumerus -69.898949 12.568335 -125.947800
rradius 52.432053
rwrist -28.377151
rhand -44.248802 -34.153351
rfingers 10.687531
rthumb -4.250760 -79.094704
lclavicle -0.000000 0.000000
lhumerus -39.156902 -40.498650 140.388153
lradius 63.579750
lwrist 19.145100
lhand -19.363800 -38.235001
lfingers 10.687531
lthumb 19.771200 6.109965
rfemur -62.186249 18.561901 8.848471
rtibia 41.199299
rfoot -35.756100 -15.558451
rtoes -29.391151
lfemur 22.266300 1.165745 -43.112701
ltibia -0.000000
lfoot -22.744350 2.579415
ltoes -3.788580
118
root 13.973354 24.160648 -31.340099 6.704790 7.282905 7.821420
lowerback -12.030704 -5.098995 -9.292860
upperback -1.623645 -6.094380 3.077235
thorax 5.925240 -3.193425 7.725285
lowerneck -28.765200 -7.708816 -20.134350
upperneck 31.885799 -9.023865 17.157000
head 16.183050 -3.794250 8.250360
rclavicle 0.000000 -0.000000
rhumerus -70.050301 12.026444 -125.650200
rradius 51.844803
rwrist -27.746700
rhand -44.533501 -33.756599
rfingers 10.687531
rthumb -4.525725 -78.694199
lclavicle 0.000000 -0.000000
lhumerus -40.119900 -40.755901 141.278992
lradius 63.690598
lwrist 18.808050
lhand -18.752550 -37.780201
lfingers 10.687531
lthumb 20.360249 6.526065
rfemur -62.224197 18.738600 7.907895
rtibia 40.824448
rfoot -36.452999 -16.364849
rtoes -28.844999
lfemur 23.277000 0.977181 -43.213200
ltibia -0.000000
lfoot -23.020500 1.999200
ltoes -3.101250
119
root 13.958534 24.148201 -31.126049 6.775725 7.897861 8.168430
lowerback -11.988359 -5.316465 -9.645451
upperback -1.615320 -6.356190 3.082905
thorax 5.972715 -3.330900 7.897200
lowerneck -28.906052 -7.872525 -20.613300
upperneck 32.059349 -9.143684 17.318249
head 16.314751 -3.867690 8.380755
rclavicle -0.000000 0.000000
rhumerus -70.111053 12.314760 -125.778458
rradius 51.483154
rwrist -27.078300
rhand -45.414749 -34.887299
rfingers 10.687531
rthumb -5.376645 -79.811707
lclavicle -0.000000 0.000000
lhumerus -41.219402 -40.869301 142.013855
lradius 64.006500
lwrist 18.630150
lhand -18.213600 -37.331253
lfingers 10.687531
lthumb 20.879700 6.939825
rfemur -62.338951 18.666300 7.187175
rtibia 40.490101
rfoot -36.635849 -16.992149
rtoes -27.942749
lfemur 24.043350 0.868636 -43.298248
ltibia 0.000000
lfoot -23.058601 1.706280
ltoes -4.262655
120
root 13.939260 24.135448 -30.911102 7.183140 8.219835 8.045851
lowerback -12.376215 -5.355945 -9.507555
upperback -1.711110 -6.400905 3.170430
thorax 6.092085 -3.352170 7.887959
lowerneck -28.686750 -7.980360 -20.916451
upperneck 31.889700 -9.247950 17.429251
head 16.241550 -3.932700 8.452650
rclavicle -0.000000 0.000000
rhumerus -70.608002 12.177315 -125.480850
rradius 51.658951
rwrist -27.057301
rhand -45.059547 -35.186550
rfingers 10.687531
rthumb -5.033640 -80.116501
lclavicle -0.000000 0.000000
lhumerus -41.960548 -40.934101 142.793549
lradius 63.672600
lwrist 18.385799
lhand -17.963551 -36.935699
lfingers 10.687531
lthumb 21.120750 7.318785
rfemur -62.893051 18.866251 6.907741
rtibia 40.165951
rfoot -36.243752 -18.323700
rtoes -30.176098
lfemur 24.392101 1.013212 -42.868347
ltibia -0.000000
lfoot -23.197800 1.391402
ltoes -5.527770
